<?xml version="1.0" encoding="UTF-8"?>
<svg width="80px" height="80px" viewBox="0 0 80 80" version="1.1" xmlns="http://www.w3.org/2000/svg" xmlns:xlink="http://www.w3.org/1999/xlink">
    <!-- Generator: Sketch 64 (93537) - https://sketch.com -->
    <title>Group 6</title>
    <desc>Created with Sketch.</desc>
    <defs>
        <polygon id="path-1" points="0 0.115052411 79.8849308 0.115052411 79.8849308 80 0 80"></polygon>
    </defs>
    <g id="Page-1" stroke="none" stroke-width="1" fill="none" fill-rule="evenodd">
        <g id="Work" transform="translate(-29.000000, -28.000000)">
            <g id="Group-6" transform="translate(29.000000, 28.000000)">
                <g id="Group-3">
                    <mask id="mask-2" fill="white">
                        <use xlink:href="#path-1"></use>
                    </mask>
                    <g id="Clip-2"></g>
                    <path d="M79.8849308,40.0575262 C79.8849308,62.1172327 62.0021635,80 39.942457,80 C17.8829182,80 -1.67714885e-05,62.1172327 -1.67714885e-05,40.0575262 C-1.67714885e-05,17.9979874 17.8829182,0.115052411 39.942457,0.115052411 C62.0021635,0.115052411 79.8849308,17.9979874 79.8849308,40.0575262" id="Fill-1" fill="#FF6200" mask="url(#mask-2)"></path>
                </g>
                <path d="M63.8197075,40.1877006 C63.2375308,49.1864294 56.0521515,56.2991613 47.2752209,56.7641806 C52.2914005,53.0397631 55.6995916,47.1781667 56.1340018,40.4642907 C56.5273191,34.3851055 54.4864299,28.5857504 50.3870402,24.134559 C49.4011472,23.0641791 48.3137799,22.1058335 47.1506005,21.2596927 C51.7407563,21.5804486 56.070266,23.6333886 59.1824208,27.0123242 C62.490144,30.604074 64.1372127,35.2834266 63.8197075,40.1877006 L63.8197075,40.1877006 Z M33.9594586,56.7895887 L33.9594586,21.2102407 L34.0703254,21.2102407 C39.1229016,21.2102407 43.9681685,23.3249105 47.3642834,27.0123242 C50.6720066,30.604074 52.3190753,35.2834266 52.0015701,40.1877006 C51.3992663,49.4972949 43.7303332,56.7895887 34.5421385,56.7895887 L33.9594586,56.7895887 Z M22.1414889,56.7895887 L29.8183051,56.7895887 L29.8183051,21.2102407 L22.1414889,21.2102407 L22.1414889,56.7895887 Z M62.2050099,24.134559 C58.0291372,19.6003224 52.0822463,17 45.8884628,17 L34.0703254,17 L31.9536241,17 L18,17 L18,61 L31.9536241,61 L34.5421385,61 L46.3606113,61 C57.7227019,61 67.2069329,51.9797851 67.9521392,40.4642907 C68.3454565,34.3851055 66.3043996,28.5857504 62.2050099,24.134559 L62.2050099,24.134559 Z" id="Fill-4" fill="#FFFFFF"></path>
            </g>
        </g>
    </g>
</svg>