<svg width="159" height="40" viewBox="0 0 159 40" fill="none" xmlns="http://www.w3.org/2000/svg">
<path d="M1.69051 1.91234H5.40995V0.223877H0V5.63072H1.69051V1.91234Z" fill="#020202"/>
<path d="M34.1562 0.223877V1.91234H37.8757V5.63072H39.5662V0.223877H34.1562Z" fill="#020202"/>
<path d="M37.8757 38.0875H34.1562V39.7776H39.5662V34.3691H37.8757V38.0875Z" fill="#020202"/>
<path d="M1.69051 34.3691H0V39.7776H5.40995V38.0875H1.69051V34.3691Z" fill="#020202"/>
<path d="M37.4874 9.99295L19.7832 0L2.0791 9.99295V30.0071L19.7832 40L37.4874 30.0071V9.99295ZM18.9388 21.4457V37.5785L4.64229 29.5152L18.9388 21.4457ZM20.6277 21.4457L34.9242 29.5152L20.6277 37.5832V21.4457ZM34.9242 10.4816L19.7832 19.0289L4.64229 10.4848L19.7832 1.93907L34.9242 10.4816Z" fill="#020202"/>
<path d="M65.549 9V12.6429H59.0534V31.6495H54.855V12.6429H48.3594V9H65.549ZM67.8775 31.6493H63.5681L73.1847 9H77.7L87.5227 31.6493H83.0074L80.425 25.4723H72.8995L74.3413 21.8294H78.904L75.3393 13.3242L67.8775 31.6493ZM90.2952 31.6493V9H94.652L102.336 26.1853L109.861 9H114.06V31.6493H110.178V15.8741L104.031 31.6493H100.45L94.1766 15.8741V31.6493H90.2952Z" fill="#020202"/>
<path d="M134.857 21.0373C135.436 22.1948 135.362 23.6491 134.946 25.0142C132.735 32.1519 122.834 33.0867 116.956 29.9259L118.233 24.3464H120.444C121.068 26.7207 127.079 27.5072 127.866 23.9606C128.4 21.705 124.541 22.1206 123.027 22.1206L123.279 21.0373H121.914L122.76 17.2534C123.932 17.2534 127.955 17.7283 127.985 15.6359C127.999 13.0539 122.626 13.692 121.409 16.2295H119.301L120.563 10.6203C124.348 9.25508 133.759 7.10334 135.406 12.3267C136.252 14.9977 134.278 18.2475 131.963 19.5385C132.69 19.9095 133.18 20.4289 133.477 21.0373L134.857 21.0373ZM156.781 21.6012H158.444C156.826 26.3794 152.7 30.1337 147.682 31.0092C143.987 31.5286 139.815 31.2763 136.06 31.2763L138.287 21.6012H136.639L139.504 9.13639C142.472 9.13639 149.983 8.67639 152.952 9.9377C157.063 11.7035 158.088 16.1998 157.138 20.2063C157.063 20.6812 156.945 21.1561 156.781 21.6012ZM145.737 14.6117L144.134 21.6009H145.782L144.817 25.7559C148.038 25.7559 149.834 24.5391 150.829 21.6009H149.181C149.344 21.2003 149.463 20.7254 149.596 20.1615C150.517 16.3182 149.389 14.6117 145.737 14.6117Z" fill="#020202"/>
</svg>
